<?xml version="1.0" standalone="no"?>
<!DOCTYPE svg PUBLIC "-//W3C//DTD SVG 20010904//EN"
 "http://www.w3.org/TR/2001/REC-SVG-20010904/DTD/svg10.dtd">
<svg version="1.0" xmlns="http://www.w3.org/2000/svg"
 width="500.000000pt" height="500.000000pt" viewBox="0 0 500.000000 500.000000"
 preserveAspectRatio="xMidYMid meet">

<g transform="translate(0.000000,500.000000) scale(0.100000,-0.100000)"
fill="#000000" stroke="none">
<path d="M1054 4650 c-245 -31 -471 -196 -568 -417 -28 -63 -66 -215 -66 -265
0 -43 34 -94 72 -107 17 -6 97 -11 177 -11 176 0 209 11 228 75 54 179 58 190
103 236 37 38 57 49 113 64 66 18 71 18 144 1 57 -14 85 -27 114 -53 66 -60
83 -97 84 -183 0 -94 -11 -115 -112 -210 -182 -174 -271 -268 -300 -320 -69
-120 -93 -225 -93 -405 0 -169 20 -185 227 -185 196 0 233 29 233 184 0 47 7
101 17 134 15 48 30 66 126 156 123 114 235 224 257 252 41 52 81 127 106 199
24 71 28 94 27 205 0 109 -3 134 -26 198 -78 219 -249 370 -488 431 -90 23
-275 33 -375 21z"/>
<path d="M4083 4409 c-102 -20 -194 -94 -245 -197 l-33 -67 -5 -721 c-4 -506
-8 -725 -16 -735 -6 -8 -21 -41 -32 -74 -11 -33 -35 -96 -52 -140 -35 -88 -56
-147 -90 -245 -13 -36 -26 -69 -30 -75 -4 -5 -13 -28 -20 -50 -7 -22 -22 -65
-35 -95 -12 -30 -30 -76 -39 -102 l-17 -47 -817 -3 -817 -3 -58 -24 c-152 -61
-257 -152 -326 -280 -63 -118 -64 -128 -68 -551 -5 -426 -3 -448 50 -480 31
-19 60 -20 1260 -20 1254 0 1248 0 1285 37 27 27 32 86 32 408 0 182 4 335 9
341 4 5 27 61 50 124 23 63 46 124 51 135 5 11 20 49 33 85 30 83 128 343 167
445 19 50 74 194 110 290 11 28 30 79 44 115 48 126 47 114 44 915 l-3 760
-28 57 c-76 155 -232 231 -404 197z"/>
<path d="M2600 3730 c-347 -49 -606 -264 -716 -595 -20 -62 -27 -107 -31 -201
-10 -223 38 -383 163 -550 123 -163 298 -278 499 -325 77 -18 298 -16 373 4
255 68 451 225 562 451 59 119 80 202 87 341 5 107 3 131 -20 222 -38 149 -83
239 -179 356 -50 61 -142 143 -193 171 -16 9 -37 20 -45 26 -117 73 -356 121
-500 100z"/>
<path d="M987 2668 c-39 -35 -47 -68 -47 -201 0 -225 12 -237 230 -237 224 0
238 14 239 225 1 138 -8 180 -45 212 -26 22 -35 23 -189 23 -154 0 -163 -1
-188 -22z"/>
</g>
</svg>
